<svg width="128" height="128" viewBox="0 0 128 128" fill="none" xmlns="http://www.w3.org/2000/svg">
<rect width="128" height="128" rx="20" fill="#324830"/>
<path d="M6.188 103.348C5.724 102.575 5.376 101.685 5.144 100.68C4.83467 99.5973 4.71867 98.3987 4.796 97.084C11.1373 89.2733 17.2467 81.6173 23.124 74.116C29.0013 66.6147 34.8013 59.0747 40.524 51.496C46.2467 43.84 51.9307 36.0293 57.576 28.064L60.476 30.848H43.424C40.3307 30.848 37.7013 31.2733 35.536 32.124C33.3707 32.8973 31.4373 34.4053 29.736 36.648C28.112 38.8907 26.4493 42.216 24.748 46.624C21.3453 46.392 18.6773 45.5027 16.744 43.956C17.5173 42.1773 18.252 40.2053 18.948 38.04C19.644 35.7973 20.2627 33.4773 20.804 31.08C21.4227 28.6053 21.9253 26.324 22.312 24.236C25.096 24.3133 27.9187 24.3907 30.78 24.468C33.7187 24.5453 36.696 24.584 39.712 24.584C42.728 24.584 45.8987 24.584 49.224 24.584C51.8533 24.584 54.4827 24.584 57.112 24.584C59.7413 24.584 62.4093 24.5453 65.116 24.468C67.8227 24.3907 70.6067 24.3133 73.468 24.236C74.628 25.7827 75.1693 27.832 75.092 30.384C69.292 38.4267 63.5307 46.3147 57.808 54.048C52.0853 61.704 46.2853 69.36 40.408 77.016C34.5307 84.5947 28.3827 92.2893 21.964 100.1L20.108 96.62H37.276C40.524 96.62 43.2693 96.4267 45.512 96.04C47.832 95.576 49.7653 94.8027 51.312 93.72C52.936 92.6373 54.3667 91.0907 55.604 89.08C56.9187 87.0693 58.272 84.44 59.664 81.192C62.7573 81.7333 65.348 82.8933 67.436 84.672C66.74 86.296 66.044 88.1907 65.348 90.356C64.652 92.444 63.9947 94.648 63.376 96.968C62.7573 99.2107 62.2547 101.337 61.868 103.348C58.388 103.193 54.9853 103.077 51.66 103C48.3347 103 45.048 103 41.8 103C38.6293 103 35.3813 103 32.056 103C28.576 103 25.4053 103 22.544 103C19.6827 103 16.9373 103 14.308 103C11.756 103.077 9.04933 103.193 6.188 103.348ZM94.9053 48.828C96.2973 49.3693 97.1867 50.2973 97.5733 51.612C97.96 52.8493 97.96 54.5507 97.5733 56.716C97.264 58.6493 96.6453 61.008 95.7173 63.792C94.8667 66.576 93.784 69.476 92.4693 72.492H92.7013L95.0213 67.156C96.7227 63.5987 98.54 60.428 100.473 57.644C102.407 54.86 104.456 52.6947 106.621 51.148C108.864 49.6013 111.261 48.828 113.813 48.828C116.133 48.828 118.144 49.4467 119.845 50.684C118.917 53.236 118.183 56.02 117.641 59.036C117.1 61.9747 116.752 64.7973 116.597 67.504C115.515 67.968 114.277 68.316 112.885 68.548C111.571 68.78 110.179 68.8573 108.709 68.78C108.864 66.5373 108.748 64.952 108.361 64.024C107.975 63.096 107.395 62.632 106.621 62.632C105.848 62.632 104.804 63.2507 103.489 64.488C102.252 65.648 100.821 67.6973 99.1973 70.636C97.8827 73.0333 96.452 76.32 94.9053 80.496C93.3587 84.672 92.1213 89.2347 91.1933 94.184L89.5693 103H75.0693L81.3333 70.288C81.952 66.9627 82.2613 64.5267 82.2613 62.98C82.3387 61.4333 81.836 60.4667 80.7533 60.08C79.748 59.616 78.008 59.384 75.5333 59.384C75.5333 58.3787 75.6107 57.3733 75.7653 56.368C75.92 55.2853 76.1907 54.3573 76.5773 53.584C78.4333 53.4293 80.4827 53.12 82.7253 52.656C84.968 52.192 87.172 51.612 89.3373 50.916C91.5027 50.22 93.3587 49.524 94.9053 48.828Z" fill="#28D2B3"/>
</svg>
